<svg xmlns="http://www.w3.org/2000/svg" viewBox="0 0 24 24"><path d="M3.5 19a.5.5 0 0 0 0 1h5.64a.5.5 0 0 0 0-1H3.5zM14 10.5a.5.5 0 0 0-.5-.5h-10a.5.5 0 0 0 0 1h10a.5.5 0 0 0 .5-.5z" fill="currentColor"/><path d="M17 23.5v-1.48a.5.5 0 0 0-1 0V23H1V7h4.5a.5.5 0 0 0 .5-.5V2h10v6.98a.5.5 0 0 0 1 0V1.5a.5.5 0 0 0-.5-.5h-11c-.022 0-.042.01-.064.013a.505.505 0 0 0-.29.133l-5 5a.506.506 0 0 0-.133.29C.01 6.458 0 6.478 0 6.5v17a.5.5 0 0 0 .5.5h16a.5.5 0 0 0 .5-.5zM5 2.707V6H1.707L5 2.707z" fill="currentColor"/><path d="M10.858 16.5a.5.5 0 0 0-.5-.5H3.5a.5.5 0 0 0 0 1h6.858a.5.5 0 0 0 .5-.5zm1.626-3a.5.5 0 0 0-.5-.5H3.5a.5.5 0 0 0 0 1h8.484a.5.5 0 0 0 .5-.5zm8.848-5.049c-.581-.581-1.596-.581-2.177 0l-7.008 7.009a.509.509 0 0 0-.112.174l-.004.006-1.249 3.385a.159.159 0 0 0-.007.02l-.9 2.439a.5.5 0 0 0 .643.641l2.439-.9.019-.007 3.386-1.249.006-.004a.48.48 0 0 0 .174-.112l7.009-7.008c.6-.6.6-1.577 0-2.177l-2.219-2.217zm-9.891 11.677l.431.431-.684.252.253-.683zm1.464.05l-1.083-1.083.877-2.376 2.583 2.583-2.377.876zm9.937-8.04l-6.655 6.655-2.98-2.98 6.655-6.655a.554.554 0 0 1 .763 0l2.218 2.218c.21.21.21.552-.001.762z" fill="currentColor"/></svg>