<svg width="23" height="23" viewBox="0 0 23 23" xmlns="http://www.w3.org/2000/svg"><title>issue</title><g fill-rule="nonzero" fill="currentColor"><path d="M11.5 23C17.841 23 23 17.841 23 11.5S17.841 0 11.5 0 0 5.159 0 11.5 5.159 23 11.5 23zm0-22C17.29 1 22 5.71 22 11.5S17.29 22 11.5 22 1 17.29 1 11.5 5.71 1 11.5 1z"/><path d="M18.494 12.35h-2.155a4.73 4.73 0 0 0-1.013-2.432l1.707-1.334a.496.496 0 0 0-.135-.856.515.515 0 0 0-.503.077L14.607 9.2a5.15 5.15 0 0 0-.365-.27 2.75 2.75 0 0 0-1.324-3.119l.607-1.09a.494.494 0 0 0-.207-.659.51.51 0 0 0-.678.176l-.692 1.232a2.646 2.646 0 0 0-.906 0l-.692-1.232a.511.511 0 0 0-.662-.141.495.495 0 0 0-.213.632l.607 1.082A2.75 2.75 0 0 0 8.76 8.925a5.15 5.15 0 0 0-.365.271L6.607 7.801a.512.512 0 0 0-.712.08.493.493 0 0 0 .082.701l1.707 1.334a4.73 4.73 0 0 0-1.013 2.432H4.506a.502.502 0 0 0-.506.498c0 .276.227.499.506.499h2.145c.086.896.428 1.75.987 2.464l-1.663 1.3a.493.493 0 0 0-.082.7.512.512 0 0 0 .712.081l1.733-1.356a4.893 4.893 0 0 0 3.038 1.149h.124a4.895 4.895 0 0 0 3.162-1.147l1.733 1.356c.22.171.538.135.712-.08a.493.493 0 0 0-.082-.702l-1.663-1.3c.559-.712.901-1.567.987-2.463h2.145c.28 0 .506-.223.506-.499a.502.502 0 0 0-.506-.498zM9.689 8.443a1.785 1.785 0 0 1 .843-1.718 1.848 1.848 0 0 1 1.938 0c.592.366.92 1.033.843 1.718h-.025a5.388 5.388 0 0 0-.405-.138h-.024a4.98 4.98 0 0 0-.43-.102h-.018a4.61 4.61 0 0 0-.441-.061h-.02a4.781 4.781 0 0 0-.45-.022c-.152 0-.302 0-.45.022h-.02c-.15.014-.296.036-.441.061h-.019a5.164 5.164 0 0 0-.429.102h-.024c-.135.04-.27.086-.405.138h-.023zm2.216 8.227v-5.504a.502.502 0 0 0-.506-.499.502.502 0 0 0-.507.499v5.474c-1.636-.244-2.93-1.49-3.214-3.094a3.77 3.77 0 0 1 1.96-3.983l.055-.028c.075-.04.154-.076.231-.11l.112-.047.14-.05a4.02 4.02 0 0 1 2.632 0l.14.05.112.048c.079.033.156.07.23.11l.055.027a3.768 3.768 0 0 1 1.955 4.079c-.332 1.634-1.71 2.864-3.395 3.028z"/></g></svg>