<svg width="23" height="23" viewBox="0 0 23 23" xmlns="http://www.w3.org/2000/svg"><title>issue</title><g fill="currentColor"><path d="M11.5 23C17.841 23 23 17.841 23 11.5S17.841 0 11.5 0 0 5.159 0 11.5 5.159 23 11.5 23zm0-22C17.29 1 22 5.71 22 11.5S17.29 22 11.5 22 1 17.29 1 11.5 5.71 1 11.5 1z"/><path d="M16.629 11.964h-1.58a3.333 3.333 0 0 0-.743-1.737l1.252-.953a.35.35 0 0 0-.1-.611.386.386 0 0 0-.368.055l-1.312.996a3.772 3.772 0 0 0-.267-.193c.242-.868-.157-1.783-.971-2.227l.445-.78a.349.349 0 0 0-.152-.47.38.38 0 0 0-.497.126l-.508.88a1.991 1.991 0 0 0-.664 0l-.508-.88a.382.382 0 0 0-.485-.1.349.349 0 0 0-.156.45l.445.774c-.812.444-1.21 1.357-.97 2.224-.092.06-.18.125-.267.194l-1.311-.997a.383.383 0 0 0-.523.058.346.346 0 0 0 .06.5l1.253.953a3.333 3.333 0 0 0-.743 1.737H6.371a.364.364 0 0 0-.371.356c0 .196.166.356.371.356h1.573c.063.64.314 1.25.724 1.76l-1.22.928a.346.346 0 0 0-.06.5c.128.155.361.18.522.058l1.271-.968a3.645 3.645 0 0 0 2.228.82h.091a3.648 3.648 0 0 0 2.319-.818l1.27.968a.384.384 0 0 0 .523-.058.346.346 0 0 0-.06-.5l-1.22-.929c.41-.51.66-1.12.724-1.76h1.573c.205 0 .371-.16.371-.356a.364.364 0 0 0-.371-.356zm-6.457-2.79a1.264 1.264 0 0 1 .618-1.228 1.386 1.386 0 0 1 1.421 0c.435.262.675.739.618 1.227h-.017a4.024 4.024 0 0 0-.298-.098h-.017a3.734 3.734 0 0 0-.315-.073h-.014a3.465 3.465 0 0 0-.323-.044h-.015a3.6 3.6 0 0 0-.33-.015c-.111 0-.221 0-.33.015h-.015c-.11.01-.216.026-.323.044h-.014c-.107.02-.21.045-.315.073h-.017a4.024 4.024 0 0 0-.298.098h-.016zm1.625 5.876v-3.932a.364.364 0 0 0-.371-.356.364.364 0 0 0-.372.356v3.91c-1.2-.174-2.149-1.064-2.357-2.21-.209-1.146.37-2.291 1.438-2.844l.04-.02c.055-.029.113-.054.17-.079l.081-.034.103-.035a3.022 3.022 0 0 1 1.93 0l.103.035.082.034c.058.025.114.05.169.079l.04.02c1.094.563 1.676 1.745 1.433 2.913-.242 1.167-1.253 2.046-2.489 2.163z"/></g></svg>