<svg xmlns="http://www.w3.org/2000/svg" viewBox="0 0 24 24"><path d="M11.5 1C5.159 1 0 6.159 0 12.5S5.159 24 11.5 24 23 18.841 23 12.5 17.841 1 11.5 1zm0 22C5.71 23 1 18.29 1 12.5S5.71 2 11.5 2 22 6.71 22 12.5 17.29 23 11.5 23z" fill="currentColor"/><path d="M14.5 12H14v-1.5C14 9.121 12.878 8 11.5 8S9 9.121 9 10.5V12h-.5a.5.5 0 0 0-.5.5v2c0 1.93 1.57 3.5 3.5 3.5s3.5-1.57 3.5-3.5v-2a.5.5 0 0 0-.5-.5zM10 10.5c0-.827.673-1.5 1.5-1.5s1.5.673 1.5 1.5V12h-3v-1.5zm4 4c0 1.379-1.122 2.5-2.5 2.5S9 15.879 9 14.5V13h5v1.5z" fill="currentColor"/></svg>