<svg xmlns="http://www.w3.org/2000/svg" viewBox="0 0 24 24"><path d="M23.985 5.621A.5.5 0 0 0 23.5 5H22V2.5a.5.5 0 0 0-.5-.5H8.35L6.068.115A.499.499 0 0 0 5.75 0H.5a.5.5 0 0 0-.5.5v16c0 .021.009.039.012.059a.48.48 0 0 0 .074.204c.009.014.011.032.021.045.005.007.014.01.02.016a.493.493 0 0 0 .118.095c.017.01.03.024.048.032.063.03.132.049.207.049h8.525c.259 3.902 3.508 7 7.475 7 4.136 0 7.5-3.364 7.5-7.5a7.45 7.45 0 0 0-1.577-4.584l1.562-6.295zM5.57 1l2.281 1.885c.09.074.203.115.319.115H21v2H3.22a.5.5 0 0 0-.486.38L1 12.395V1h4.57zM3.611 6H22.86l-1.247 5.028A7.463 7.463 0 0 0 16.5 9c-3.967 0-7.216 3.098-7.475 7H1.139L3.611 6zM16.5 23c-3.584 0-6.5-2.916-6.5-6.5s2.916-6.5 6.5-6.5 6.5 2.916 6.5 6.5-2.916 6.5-6.5 6.5z"/><path d="M20.5 16H17v-3.5a.5.5 0 0 0-1 0V16h-3.5a.5.5 0 0 0 0 1H16v3.5a.5.5 0 0 0 1 0V17h3.5a.5.5 0 0 0 0-1z"/></svg>