<svg xmlns="http://www.w3.org/2000/svg" viewBox="0 0 24 24"><path d="M11.5 24C17.841 24 23 18.841 23 12.5S17.841 1 11.5 1 0 6.159 0 12.5 5.159 24 11.5 24zm0-22C17.29 2 22 6.71 22 12.5S17.29 23 11.5 23 1 18.29 1 12.5 5.71 2 11.5 2z" fill="currentColor"/><path d="M5.5 10h7.551c.232 1.14 1.242 2 2.449 2 1.379 0 2.5-1.122 2.5-2.5S16.879 7 15.5 7c-1.208 0-2.217.86-2.449 2H5.5a.5.5 0 0 0 0 1zm10-2c.827 0 1.5.673 1.5 1.5s-.673 1.5-1.5 1.5-1.5-.673-1.5-1.5.673-1.5 1.5-1.5zm-8 10c1.208 0 2.217-.86 2.449-2H17.5a.5.5 0 0 0 0-1H9.949A2.503 2.503 0 0 0 7.5 13C6.121 13 5 14.122 5 15.5S6.121 18 7.5 18zm0-4c.827 0 1.5.673 1.5 1.5S8.327 17 7.5 17 6 16.327 6 15.5 6.673 14 7.5 14z" fill="currentColor"/></svg>