<svg xmlns="http://www.w3.org/2000/svg" xmlns:xlink="http://www.w3.org/1999/xlink" style="display:none"><symbol  viewBox='0 0 16 12' id='txt-dir-open'>
    <title>dir-open</title><path d="M16 2H7C5.05.667 4.05 0 4 0H0v12h16V2zM3.5 1l3 2H15v4H1V.998L3.5 1z" fill="currentColor"></path>
  </symbol><symbol  viewBox='0 0 16 12' id='txt-dir'>
    <title>dir</title><path d="M16 2H7C5.05.667 4.05 0 4 0H0v12h16V2z" fill="currentColor"></path>
  </symbol><symbol  viewBox='0 0 24 24' id='txt-edit'>
    <path d="M3.5 19a.5.5 0 0 0 0 1h5.64a.5.5 0 0 0 0-1H3.5zM14 10.5a.5.5 0 0 0-.5-.5h-10a.5.5 0 0 0 0 1h10a.5.5 0 0 0 .5-.5z" fill="currentColor"></path><path d="M17 23.5v-1.48a.5.5 0 0 0-1 0V23H1V7h4.5a.5.5 0 0 0 .5-.5V2h10v6.98a.5.5 0 0 0 1 0V1.5a.5.5 0 0 0-.5-.5h-11c-.022 0-.042.01-.064.013a.505.505 0 0 0-.29.133l-5 5a.506.506 0 0 0-.133.29C.01 6.458 0 6.478 0 6.5v17a.5.5 0 0 0 .5.5h16a.5.5 0 0 0 .5-.5zM5 2.707V6H1.707L5 2.707z" fill="currentColor"></path><path d="M10.858 16.5a.5.5 0 0 0-.5-.5H3.5a.5.5 0 0 0 0 1h6.858a.5.5 0 0 0 .5-.5zm1.626-3a.5.5 0 0 0-.5-.5H3.5a.5.5 0 0 0 0 1h8.484a.5.5 0 0 0 .5-.5zm8.848-5.049c-.581-.581-1.596-.581-2.177 0l-7.008 7.009a.509.509 0 0 0-.112.174l-.004.006-1.249 3.385a.159.159 0 0 0-.007.02l-.9 2.439a.5.5 0 0 0 .643.641l2.439-.9.019-.007 3.386-1.249.006-.004a.48.48 0 0 0 .174-.112l7.009-7.008c.6-.6.6-1.577 0-2.177l-2.219-2.217zm-9.891 11.677l.431.431-.684.252.253-.683zm1.464.05l-1.083-1.083.877-2.376 2.583 2.583-2.377.876zm9.937-8.04l-6.655 6.655-2.98-2.98 6.655-6.655a.554.554 0 0 1 .763 0l2.218 2.218c.21.21.21.552-.001.762z" fill="currentColor"></path>
  </symbol><symbol  viewBox='0 0 9 12' id='txt-file'>
    <title>file</title><path d="M0 0h9v8.87C9 10.59 7.57 12 5.824 12H0V0zm2 5h5V4H2v1zm0-2h5V2H2v1zm0 4h4V6H2v1zm0 2h3V8H2v1z" fill="currentColor"></path>
  </symbol><symbol  viewBox='0 0 24 24' id='txt-folder-active'>
    <path d="M23.5 6H10.175L6.563 3.109A.507.507 0 0 0 6.25 3H.5a.5.5 0 0 0-.5.5v17a.5.5 0 0 0 .5.5h23a.5.5 0 0 0 .5-.5v-14a.5.5 0 0 0-.5-.5zM6.075 4l3.613 2.891c.088.07.198.109.312.109h13v2H1V4h5.075zM1 20V10h22v10H1z" fill="currentColor"></path>
  </symbol><symbol  viewBox='0 0 24 24' id='txt-lock'>
    <path d="M11.5 1C5.159 1 0 6.159 0 12.5S5.159 24 11.5 24 23 18.841 23 12.5 17.841 1 11.5 1zm0 22C5.71 23 1 18.29 1 12.5S5.71 2 11.5 2 22 6.71 22 12.5 17.29 23 11.5 23z" fill="currentColor"></path><path d="M14.5 12H14v-1.5C14 9.121 12.878 8 11.5 8S9 9.121 9 10.5V12h-.5a.5.5 0 0 0-.5.5v2c0 1.93 1.57 3.5 3.5 3.5s3.5-1.57 3.5-3.5v-2a.5.5 0 0 0-.5-.5zM10 10.5c0-.827.673-1.5 1.5-1.5s1.5.673 1.5 1.5V12h-3v-1.5zm4 4c0 1.379-1.122 2.5-2.5 2.5S9 15.879 9 14.5V13h5v1.5z" fill="currentColor"></path>
  </symbol><symbol  viewBox='0 0 24 24' id='txt-new-folder'>
    <path d="M23.985 5.621A.5.5 0 0 0 23.5 5H22V2.5a.5.5 0 0 0-.5-.5H8.35L6.068.115A.499.499 0 0 0 5.75 0H.5a.5.5 0 0 0-.5.5v16c0 .021.009.039.012.059a.48.48 0 0 0 .074.204c.009.014.011.032.021.045.005.007.014.01.02.016a.493.493 0 0 0 .118.095c.017.01.03.024.048.032.063.03.132.049.207.049h8.525c.259 3.902 3.508 7 7.475 7 4.136 0 7.5-3.364 7.5-7.5a7.45 7.45 0 0 0-1.577-4.584l1.562-6.295zM5.57 1l2.281 1.885c.09.074.203.115.319.115H21v2H3.22a.5.5 0 0 0-.486.38L1 12.395V1h4.57zM3.611 6H22.86l-1.247 5.028A7.463 7.463 0 0 0 16.5 9c-3.967 0-7.216 3.098-7.475 7H1.139L3.611 6zM16.5 23c-3.584 0-6.5-2.916-6.5-6.5s2.916-6.5 6.5-6.5 6.5 2.916 6.5 6.5-2.916 6.5-6.5 6.5z"></path><path d="M20.5 16H17v-3.5a.5.5 0 0 0-1 0V16h-3.5a.5.5 0 0 0 0 1H16v3.5a.5.5 0 0 0 1 0V17h3.5a.5.5 0 0 0 0-1z"></path>
  </symbol><symbol  viewBox='0 0 24 24' id='txt-new'>
    <path d="M1.5 24h20c.827 0 1.5-.673 1.5-1.5v-20c0-.827-.673-1.5-1.5-1.5h-20C.673 1 0 1.673 0 2.5v20c0 .827.673 1.5 1.5 1.5zM1 2.5a.5.5 0 0 1 .5-.5h20a.5.5 0 0 1 .5.5v20a.5.5 0 0 1-.5.5h-20a.5.5 0 0 1-.5-.5v-20z" fill="currentColor"></path><path d="M6.5 13H11v4.5a.5.5 0 0 0 1 0V13h4.5a.5.5 0 0 0 0-1H12V7.5a.5.5 0 0 0-1 0V12H6.5a.5.5 0 0 0 0 1z" fill="currentColor"></path>
  </symbol><symbol  viewBox='0 0 24 24' id='txt-settings'>
    <path d="M11.5 24C17.841 24 23 18.841 23 12.5S17.841 1 11.5 1 0 6.159 0 12.5 5.159 24 11.5 24zm0-22C17.29 2 22 6.71 22 12.5S17.29 23 11.5 23 1 18.29 1 12.5 5.71 2 11.5 2z" fill="currentColor"></path><path d="M5.5 10h7.551c.232 1.14 1.242 2 2.449 2 1.379 0 2.5-1.122 2.5-2.5S16.879 7 15.5 7c-1.208 0-2.217.86-2.449 2H5.5a.5.5 0 0 0 0 1zm10-2c.827 0 1.5.673 1.5 1.5s-.673 1.5-1.5 1.5-1.5-.673-1.5-1.5.673-1.5 1.5-1.5zm-8 10c1.208 0 2.217-.86 2.449-2H17.5a.5.5 0 0 0 0-1H9.949A2.503 2.503 0 0 0 7.5 13C6.121 13 5 14.122 5 15.5S6.121 18 7.5 18zm0-4c.827 0 1.5.673 1.5 1.5S8.327 17 7.5 17 6 16.327 6 15.5 6.673 14 7.5 14z" fill="currentColor"></path>
  </symbol></svg>