<svg xmlns="http://www.w3.org/2000/svg" xmlns:xlink="http://www.w3.org/1999/xlink" style="display:none"><symbol  viewBox='0 0 16 12' id='txt-dir-open'>
    <title>dir-open</title><path d="M16 2H7C5.05.667 4.05 0 4 0H0v12h16V2zM3.5 1l3 2H15v4H1V.998L3.5 1z" fill="currentColor"></path>
  </symbol><symbol  viewBox='0 0 16 12' id='txt-dir'>
    <title>dir</title><path d="M16 2H7C5.05.667 4.05 0 4 0H0v12h16V2z" fill="currentColor"></path>
  </symbol><symbol  viewBox='0 0 24 24' id='txt-edit'>
    <path d="M3.5 19a.5.5 0 0 0 0 1h5.64a.5.5 0 0 0 0-1H3.5zM14 10.5a.5.5 0 0 0-.5-.5h-10a.5.5 0 0 0 0 1h10a.5.5 0 0 0 .5-.5z" fill="currentColor"></path><path d="M17 23.5v-1.48a.5.5 0 0 0-1 0V23H1V7h4.5a.5.5 0 0 0 .5-.5V2h10v6.98a.5.5 0 0 0 1 0V1.5a.5.5 0 0 0-.5-.5h-11c-.022 0-.042.01-.064.013a.505.505 0 0 0-.29.133l-5 5a.506.506 0 0 0-.133.29C.01 6.458 0 6.478 0 6.5v17a.5.5 0 0 0 .5.5h16a.5.5 0 0 0 .5-.5zM5 2.707V6H1.707L5 2.707z" fill="currentColor"></path><path d="M10.858 16.5a.5.5 0 0 0-.5-.5H3.5a.5.5 0 0 0 0 1h6.858a.5.5 0 0 0 .5-.5zm1.626-3a.5.5 0 0 0-.5-.5H3.5a.5.5 0 0 0 0 1h8.484a.5.5 0 0 0 .5-.5zm8.848-5.049c-.581-.581-1.596-.581-2.177 0l-7.008 7.009a.509.509 0 0 0-.112.174l-.004.006-1.249 3.385a.159.159 0 0 0-.007.02l-.9 2.439a.5.5 0 0 0 .643.641l2.439-.9.019-.007 3.386-1.249.006-.004a.48.48 0 0 0 .174-.112l7.009-7.008c.6-.6.6-1.577 0-2.177l-2.219-2.217zm-9.891 11.677l.431.431-.684.252.253-.683zm1.464.05l-1.083-1.083.877-2.376 2.583 2.583-2.377.876zm9.937-8.04l-6.655 6.655-2.98-2.98 6.655-6.655a.554.554 0 0 1 .763 0l2.218 2.218c.21.21.21.552-.001.762z" fill="currentColor"></path>
  </symbol><symbol  viewBox='0 0 9 12' id='txt-file'>
    <title>file</title><path d="M0 0h9v8.87C9 10.59 7.57 12 5.824 12H0V0zm2 5h5V4H2v1zm0-2h5V2H2v1zm0 4h4V6H2v1zm0 2h3V8H2v1z" fill="currentColor"></path>
  </symbol><symbol  viewBox='0 0 24 24' id='txt-folder-active'>
    <path d="M23.5 6H10.175L6.563 3.109A.507.507 0 0 0 6.25 3H.5a.5.5 0 0 0-.5.5v17a.5.5 0 0 0 .5.5h23a.5.5 0 0 0 .5-.5v-14a.5.5 0 0 0-.5-.5zM6.075 4l3.613 2.891c.088.07.198.109.312.109h13v2H1V4h5.075zM1 20V10h22v10H1z" fill="currentColor"></path>
  </symbol><symbol  viewBox='0 0 23 23' id='txt-issue'>
    <title>issue</title><g fill-rule="nonzero" fill="currentColor"><path d="M11.5 23C17.841 23 23 17.841 23 11.5S17.841 0 11.5 0 0 5.159 0 11.5 5.159 23 11.5 23zm0-22C17.29 1 22 5.71 22 11.5S17.29 22 11.5 22 1 17.29 1 11.5 5.71 1 11.5 1z"></path><path d="M18.494 12.35h-2.155a4.73 4.73 0 0 0-1.013-2.432l1.707-1.334a.496.496 0 0 0-.135-.856.515.515 0 0 0-.503.077L14.607 9.2a5.15 5.15 0 0 0-.365-.27 2.75 2.75 0 0 0-1.324-3.119l.607-1.09a.494.494 0 0 0-.207-.659.51.51 0 0 0-.678.176l-.692 1.232a2.646 2.646 0 0 0-.906 0l-.692-1.232a.511.511 0 0 0-.662-.141.495.495 0 0 0-.213.632l.607 1.082A2.75 2.75 0 0 0 8.76 8.925a5.15 5.15 0 0 0-.365.271L6.607 7.801a.512.512 0 0 0-.712.08.493.493 0 0 0 .082.701l1.707 1.334a4.73 4.73 0 0 0-1.013 2.432H4.506a.502.502 0 0 0-.506.498c0 .276.227.499.506.499h2.145c.086.896.428 1.75.987 2.464l-1.663 1.3a.493.493 0 0 0-.082.7.512.512 0 0 0 .712.081l1.733-1.356a4.893 4.893 0 0 0 3.038 1.149h.124a4.895 4.895 0 0 0 3.162-1.147l1.733 1.356c.22.171.538.135.712-.08a.493.493 0 0 0-.082-.702l-1.663-1.3c.559-.712.901-1.567.987-2.463h2.145c.28 0 .506-.223.506-.499a.502.502 0 0 0-.506-.498zM9.689 8.443a1.785 1.785 0 0 1 .843-1.718 1.848 1.848 0 0 1 1.938 0c.592.366.92 1.033.843 1.718h-.025a5.388 5.388 0 0 0-.405-.138h-.024a4.98 4.98 0 0 0-.43-.102h-.018a4.61 4.61 0 0 0-.441-.061h-.02a4.781 4.781 0 0 0-.45-.022c-.152 0-.302 0-.45.022h-.02c-.15.014-.296.036-.441.061h-.019a5.164 5.164 0 0 0-.429.102h-.024c-.135.04-.27.086-.405.138h-.023zm2.216 8.227v-5.504a.502.502 0 0 0-.506-.499.502.502 0 0 0-.507.499v5.474c-1.636-.244-2.93-1.49-3.214-3.094a3.77 3.77 0 0 1 1.96-3.983l.055-.028c.075-.04.154-.076.231-.11l.112-.047.14-.05a4.02 4.02 0 0 1 2.632 0l.14.05.112.048c.079.033.156.07.23.11l.055.027a3.768 3.768 0 0 1 1.955 4.079c-.332 1.634-1.71 2.864-3.395 3.028z"></path></g>
  </symbol><symbol  viewBox='0 0 24 24' id='txt-lock'>
    <path d="M11.5 1C5.159 1 0 6.159 0 12.5S5.159 24 11.5 24 23 18.841 23 12.5 17.841 1 11.5 1zm0 22C5.71 23 1 18.29 1 12.5S5.71 2 11.5 2 22 6.71 22 12.5 17.29 23 11.5 23z" fill="currentColor"></path><path d="M14.5 12H14v-1.5C14 9.121 12.878 8 11.5 8S9 9.121 9 10.5V12h-.5a.5.5 0 0 0-.5.5v2c0 1.93 1.57 3.5 3.5 3.5s3.5-1.57 3.5-3.5v-2a.5.5 0 0 0-.5-.5zM10 10.5c0-.827.673-1.5 1.5-1.5s1.5.673 1.5 1.5V12h-3v-1.5zm4 4c0 1.379-1.122 2.5-2.5 2.5S9 15.879 9 14.5V13h5v1.5z" fill="currentColor"></path>
  </symbol><symbol  viewBox='0 0 24 24' id='txt-new-folder'>
    <path d="M23.985 5.621A.5.5 0 0 0 23.5 5H22V2.5a.5.5 0 0 0-.5-.5H8.35L6.068.115A.499.499 0 0 0 5.75 0H.5a.5.5 0 0 0-.5.5v16c0 .021.009.039.012.059a.48.48 0 0 0 .074.204c.009.014.011.032.021.045.005.007.014.01.02.016a.493.493 0 0 0 .118.095c.017.01.03.024.048.032.063.03.132.049.207.049h8.525c.259 3.902 3.508 7 7.475 7 4.136 0 7.5-3.364 7.5-7.5a7.45 7.45 0 0 0-1.577-4.584l1.562-6.295zM5.57 1l2.281 1.885c.09.074.203.115.319.115H21v2H3.22a.5.5 0 0 0-.486.38L1 12.395V1h4.57zM3.611 6H22.86l-1.247 5.028A7.463 7.463 0 0 0 16.5 9c-3.967 0-7.216 3.098-7.475 7H1.139L3.611 6zM16.5 23c-3.584 0-6.5-2.916-6.5-6.5s2.916-6.5 6.5-6.5 6.5 2.916 6.5 6.5-2.916 6.5-6.5 6.5z"></path><path d="M20.5 16H17v-3.5a.5.5 0 0 0-1 0V16h-3.5a.5.5 0 0 0 0 1H16v3.5a.5.5 0 0 0 1 0V17h3.5a.5.5 0 0 0 0-1z"></path>
  </symbol><symbol  viewBox='0 0 24 24' id='txt-new'>
    <path d="M1.5 24h20c.827 0 1.5-.673 1.5-1.5v-20c0-.827-.673-1.5-1.5-1.5h-20C.673 1 0 1.673 0 2.5v20c0 .827.673 1.5 1.5 1.5zM1 2.5a.5.5 0 0 1 .5-.5h20a.5.5 0 0 1 .5.5v20a.5.5 0 0 1-.5.5h-20a.5.5 0 0 1-.5-.5v-20z" fill="currentColor"></path><path d="M6.5 13H11v4.5a.5.5 0 0 0 1 0V13h4.5a.5.5 0 0 0 0-1H12V7.5a.5.5 0 0 0-1 0V12H6.5a.5.5 0 0 0 0 1z" fill="currentColor"></path>
  </symbol><symbol  viewBox='0 0 24 24' id='txt-settings'>
    <path d="M11.5 24C17.841 24 23 18.841 23 12.5S17.841 1 11.5 1 0 6.159 0 12.5 5.159 24 11.5 24zm0-22C17.29 2 22 6.71 22 12.5S17.29 23 11.5 23 1 18.29 1 12.5 5.71 2 11.5 2z" fill="currentColor"></path><path d="M5.5 10h7.551c.232 1.14 1.242 2 2.449 2 1.379 0 2.5-1.122 2.5-2.5S16.879 7 15.5 7c-1.208 0-2.217.86-2.449 2H5.5a.5.5 0 0 0 0 1zm10-2c.827 0 1.5.673 1.5 1.5s-.673 1.5-1.5 1.5-1.5-.673-1.5-1.5.673-1.5 1.5-1.5zm-8 10c1.208 0 2.217-.86 2.449-2H17.5a.5.5 0 0 0 0-1H9.949A2.503 2.503 0 0 0 7.5 13C6.121 13 5 14.122 5 15.5S6.121 18 7.5 18zm0-4c.827 0 1.5.673 1.5 1.5S8.327 17 7.5 17 6 16.327 6 15.5 6.673 14 7.5 14z" fill="currentColor"></path>
  </symbol></svg>