<svg width="24" height="24" xmlns="http://www.w3.org/2000/svg"><g fill="#27FF98" fill-rule="nonzero"><path d="M15.764 19.577a.68.68 0 0 0 .503.228.68.68 0 0 0 .503-.228l2.844-3.122a.836.836 0 0 0 0-1.105.668.668 0 0 0-1.006 0l-1.63 1.79v-6.701c1.178 0 2.133-1.048 2.133-2.341V6.537c0-1.294-.955-2.342-2.133-2.342h-1.422c-1.179 0-2.134 1.048-2.134 2.342v1.56c0 1.294.955 2.342 2.134 2.342v6.7l-1.63-1.789a.668.668 0 0 0-1.007 0 .836.836 0 0 0 0 1.105l2.845 3.122zm-.92-11.48v-1.56c0-.431.319-.78.712-.78h1.422c.393 0 .71.349.71.78v1.56c0 .432-.317.781-.71.781h-1.422c-.393 0-.712-.35-.712-.78zM4.386 8.65a.68.68 0 0 0 .503.229.68.68 0 0 0 .503-.23l1.63-1.789v6.701c-1.178 0-2.133 1.048-2.133 2.341v1.561c0 1.294.955 2.342 2.133 2.342h1.422c1.179 0 2.134-1.048 2.134-2.342v-1.56c0-1.294-.955-2.342-2.134-2.342v-6.7l1.63 1.789a.668.668 0 0 0 1.007 0 .836.836 0 0 0 0-1.105L8.236 4.423a.68.68 0 0 0-.503-.228.68.68 0 0 0-.503.228L4.386 7.545a.82.82 0 0 0-.209.553.82.82 0 0 0 .209.552zm4.77 7.252v1.561c0 .431-.319.78-.712.78H7.022c-.393 0-.71-.349-.71-.78v-1.56c0-.432.317-.781.71-.781h1.422c.393 0 .712.35.712.78z"/></g></svg>