<?xml version="1.0" encoding="UTF-8"?>
<svg width="16px" height="16px" viewBox="0 0 16 16" version="1.1" xmlns="http://www.w3.org/2000/svg" xmlns:xlink="http://www.w3.org/1999/xlink">
    <!-- Generator: Sketch 50 (54983) - http://www.bohemiancoding.com/sketch -->
    <title>history</title>
    <desc>Created with Sketch.</desc>
    <defs></defs>
    <g id="history" stroke="none" stroke-width="1" fill="none" fill-rule="evenodd">
        <g transform="translate(2.000000, 2.000000)" fill="#27FF98" fill-rule="nonzero" id="Shape">
            <path d="M8.82266667,11.682439 C8.92270307,11.7923573 9.0584484,11.854119 9.2,11.854119 C9.3415516,11.854119 9.47729693,11.7923573 9.57733333,11.682439 L11.7106667,9.34097561 C11.9190621,9.1122489 11.9190621,8.74140964 11.7106667,8.51268293 C11.5022712,8.28395622 11.1643954,8.28395622 10.956,8.51268293 L9.73333333,9.85463415 L9.73333333,4.82926829 C10.6169889,4.82926829 11.3333333,4.04303663 11.3333333,3.07317073 L11.3333333,1.90243902 C11.3333333,0.932573122 10.6169889,0.146341463 9.73333333,0.146341463 L8.66666667,0.146341463 C7.78301107,0.146341463 7.06666667,0.932573122 7.06666667,1.90243902 L7.06666667,3.07317073 C7.06666667,4.04303663 7.78301107,4.82926829 8.66666667,4.82926829 L8.66666667,9.85463415 L7.444,8.51268293 C7.23560455,8.28395622 6.89772878,8.28395622 6.68933333,8.51268293 C6.48093789,8.74140964 6.48093789,9.1122489 6.68933333,9.34097561 L8.82266667,11.682439 Z M8.13333333,3.07317073 L8.13333333,1.90243902 C8.13333333,1.57915039 8.3721148,1.31707317 8.66666667,1.31707317 L9.73333333,1.31707317 C10.0278852,1.31707317 10.2666667,1.57915039 10.2666667,1.90243902 L10.2666667,3.07317073 C10.2666667,3.39645937 10.0278852,3.65853659 9.73333333,3.65853659 L8.66666667,3.65853659 C8.3721148,3.65853659 8.13333333,3.39645937 8.13333333,3.07317073 Z"></path>
            <path d="M0.289333333,3.48731707 C0.389369737,3.59723534 0.525115068,3.65899707 0.666666667,3.65899707 C0.808218266,3.65899707 0.943963596,3.59723534 1.044,3.48731707 L2.26666667,2.14536585 L2.26666667,7.17073171 C1.38301107,7.17073171 0.666666667,7.95696337 0.666666667,8.92682927 L0.666666667,10.097561 C0.666666667,11.0674269 1.38301107,11.8536585 2.26666667,11.8536585 L3.33333333,11.8536585 C4.21698893,11.8536585 4.93333333,11.0674269 4.93333333,10.097561 L4.93333333,8.92682927 C4.93333333,7.95696337 4.21698893,7.17073171 3.33333333,7.17073171 L3.33333333,2.14536585 L4.556,3.48731707 C4.76439545,3.71604377 5.10227121,3.71604376 5.31066666,3.48731706 C5.5190621,3.25859036 5.5190621,2.8877511 5.31066667,2.65902439 L3.17733333,0.317560976 C3.07729693,0.207642707 2.9415516,0.145880982 2.8,0.145880982 C2.6584484,0.145880982 2.52270307,0.207642707 2.42266667,0.317560976 L0.289333333,2.65902439 C0.189185577,2.76882044 0.132913783,2.91780922 0.132913783,3.07317073 C0.132913783,3.22853224 0.189185577,3.37752102 0.289333333,3.48731707 Z M3.86666667,8.92682927 L3.86666667,10.097561 C3.86666667,10.4208496 3.6278852,10.6829268 3.33333333,10.6829268 L2.26666667,10.6829268 C1.9721148,10.6829268 1.73333333,10.4208496 1.73333333,10.097561 L1.73333333,8.92682927 C1.73333333,8.60354063 1.9721148,8.34146341 2.26666667,8.34146341 L3.33333333,8.34146341 C3.6278852,8.34146341 3.86666667,8.60354063 3.86666667,8.92682927 Z"></path>
        </g>
    </g>
</svg>