<?xml version="1.0" encoding="UTF-8"?>
<svg width="16px" height="16px" viewBox="0 0 16 16" version="1.1" xmlns="http://www.w3.org/2000/svg" xmlns:xlink="http://www.w3.org/1999/xlink">
    <!-- Generator: Sketch 50 (54983) - http://www.bohemiancoding.com/sketch -->
    <title>p2p</title>
    <desc>Created with Sketch.</desc>
    <defs></defs>
    <g id="p2p" stroke="none" stroke-width="1" fill="none" fill-rule="evenodd">
        <g transform="translate(8.000000, 8.000000) scale(1, -1) translate(-8.000000, -8.000000) translate(2.000000, 2.000000)" fill="#27FF98" fill-rule="nonzero" id="Shape">
            <path d="M10.5652476,9.37878024 C10.4795419,9.37878024 10.3961202,9.38709677 10.3147842,9.40146169 L7.42521849,4.07155683 C7.98235567,3.66206212 8.34226033,3.02055506 8.34226033,2.30032447 C8.34226033,1.06659525 7.28747352,0.062893771 5.99106197,0.062893771 C4.69465042,0.062893771 3.63986361,1.06659525 3.63986361,2.30032447 C3.63986361,3.01979901 3.99897378,3.66055003 4.55501854,4.07013923 L1.66485699,9.40108366 C1.58431541,9.38709676 1.50168829,9.37878023 1.41687632,9.37878023 C0.66141419,9.37878023 0.0489605288,9.96150453 0.0489605288,10.6805065 C0.0489605288,11.3995086 0.66141418,11.9822329 1.41687632,11.9822329 C2.17243776,11.9822329 2.78489141,11.3995086 2.78489141,10.6805065 C2.78489141,10.3366935 2.64376985,10.0248236 2.41495629,9.79214969 L5.31494967,4.4430601 C5.39608713,4.46626133 5.47911148,4.48516254 5.56352621,4.49999999 L5.56352621,9.44436743 C5.01761121,9.61542338 4.62314618,10.1036416 4.62314618,10.6805065 C4.62314618,11.3995086 5.23550052,11.9822329 5.99106196,11.9822329 C6.7466234,11.9822329 7.35907705,11.3995086 7.35907705,10.6805065 C7.35907705,10.1036416 6.9645127,9.61542338 6.41859771,9.44436743 L6.41859771,4.5 C6.50221794,4.48530431 6.58444782,4.46659212 6.66489008,4.44367439 L9.56557864,9.79385081 C9.33765889,10.0263357 9.19723251,10.3374496 9.19723251,10.6805066 C9.19723251,11.3995086 9.80968616,11.9822329 10.5652476,11.9822329 C11.3207097,11.9822329 11.9331634,11.3995086 11.9331634,10.6805066 C11.9331634,9.96150454 11.3207097,9.37878024 10.5652476,9.37878024 Z M5.99106197,0.876496345 C6.81604211,0.876496345 7.48728814,1.51521548 7.48728814,2.30032447 C7.48728814,3.08538621 6.81604211,3.72415259 5.99106197,3.72415259 C5.16608183,3.72415259 4.49483581,3.08538621 4.49483581,2.30032447 C4.49483581,1.51521548 5.16608183,0.876496345 5.99106197,0.876496345 Z"></path>
        </g>
    </g>
</svg>