<svg width="24" height="24" xmlns="http://www.w3.org/2000/svg"><path d="M18.087 7.495c-.114 0-.226-.011-.334-.03L13.9 14.57c.743.546 1.223 1.402 1.223 2.362 0 1.645-1.406 2.983-3.135 2.983-1.728 0-3.135-1.338-3.135-2.983 0-.96.479-1.814 1.22-2.36L6.22 7.465c-.108.019-.218.03-.33.03-1.008 0-1.825-.777-1.825-1.736 0-.958.817-1.735 1.824-1.735 1.008 0 1.824.777 1.824 1.735 0 .459-.188.875-.493 1.185l3.867 7.132c.108-.031.218-.056.331-.076V7.408c-.728-.229-1.254-.88-1.254-1.649 0-.958.817-1.735 1.824-1.735 1.007 0 1.824.777 1.824 1.735 0 .77-.526 1.42-1.254 1.649V14c.112.02.221.045.329.075l3.867-7.133a1.683 1.683 0 0 1-.491-1.183c0-.958.817-1.735 1.824-1.735 1.007 0 1.824.777 1.824 1.735 0 .959-.817 1.736-1.824 1.736zm-6.099 11.336c1.1 0 1.995-.851 1.995-1.898s-.895-1.899-1.995-1.899-1.995.852-1.995 1.899c0 1.047.895 1.898 1.995 1.898z" fill="#27FF98" fill-rule="nonzero"/></svg>