<?xml version="1.0" encoding="UTF-8"?>
<svg width="16px" height="16px" viewBox="0 0 16 16" version="1.1" xmlns="http://www.w3.org/2000/svg" xmlns:xlink="http://www.w3.org/1999/xlink">
    <!-- Generator: Sketch 50 (54983) - http://www.bohemiancoding.com/sketch -->
    <title>settings</title>
    <desc>Created with Sketch.</desc>
    <defs></defs>
    <g id="settings" stroke="none" stroke-width="1" fill="none" fill-rule="evenodd" stroke-linecap="round" stroke-linejoin="round">
        <g transform="translate(2.000000, 2.000000)" stroke="#27FF98">
            <circle id="Oval" cx="6" cy="6" r="1.63636364"></circle>
            <path d="M10.0363636,7.63636364 C9.88781102,7.97295822 9.95909134,8.36607996 10.2163636,8.62909091 L10.2490909,8.66181818 C10.4539386,8.8664381 10.56904,9.144099 10.56904,9.43363636 C10.56904,9.72317373 10.4539386,10.0008346 10.2490909,10.2054545 C10.044471,10.4103022 9.76681009,10.5254036 9.47727273,10.5254036 C9.18773537,10.5254036 8.91007446,10.4103022 8.70545455,10.2054545 L8.67272727,10.1727273 C8.40971633,9.91545498 8.01659458,9.84417466 7.68,9.99272727 C7.35028876,10.1340372 7.13597613,10.4576493 7.13454545,10.8163636 L7.13454545,10.9090909 C7.13454545,11.5115834 6.64612882,12 6.04363636,12 C5.44114391,12 4.95272727,11.5115834 4.95272727,10.9090909 L4.95272727,10.86 C4.94408542,10.4905477 4.71047551,10.1639265 4.36363636,10.0363636 C4.02704178,9.88781102 3.63392004,9.95909134 3.37090909,10.2163636 L3.33818182,10.2490909 C3.1335619,10.4539386 2.855901,10.56904 2.56636364,10.56904 C2.27682627,10.56904 1.99916537,10.4539386 1.79454545,10.2490909 C1.58969777,10.044471 1.47459637,9.76681009 1.47459637,9.47727273 C1.47459637,9.18773537 1.58969777,8.91007446 1.79454545,8.70545455 L1.82727273,8.67272727 C2.08454502,8.40971633 2.15582534,8.01659458 2.00727273,7.68 C1.86596275,7.35028876 1.54235068,7.13597613 1.18363636,7.13454545 L1.09090909,7.13454545 C0.488416637,7.13454545 1.21115239e-16,6.64612882 0,6.04363636 C-6.05576195e-17,5.44114391 0.488416637,4.95272727 1.09090909,4.95272727 L1.14,4.95272727 C1.50945228,4.94408542 1.83607354,4.71047551 1.96363636,4.36363636 C2.11218898,4.02704178 2.04090866,3.63392004 1.78363636,3.37090909 L1.75090909,3.33818182 C1.54606141,3.1335619 1.43096001,2.855901 1.43096001,2.56636364 C1.43096001,2.27682627 1.54606141,1.99916537 1.75090909,1.79454545 C1.95552901,1.58969777 2.23318991,1.47459637 2.52272727,1.47459637 C2.81226463,1.47459637 3.08992554,1.58969777 3.29454545,1.79454545 L3.32727273,1.82727273 C3.59028367,2.08454502 3.98340542,2.15582534 4.32,2.00727273 L4.36363636,2.00727273 C4.6933476,1.86596275 4.90766023,1.54235068 4.90909091,1.18363636 L4.90909091,1.09090909 C4.90909091,0.488416637 5.39750755,1.21115239e-16 6,0 C6.60249245,0 7.09090909,0.488416637 7.09090909,1.09090909 L7.09090909,1.14 C7.09233977,1.49871432 7.3066524,1.82232639 7.63636364,1.96363636 C7.97295822,2.11218898 8.36607996,2.04090866 8.62909091,1.78363636 L8.66181818,1.75090909 C8.8664381,1.54606141 9.144099,1.43096001 9.43363636,1.43096001 C9.72317373,1.43096001 10.0008346,1.54606141 10.2054545,1.75090909 C10.4103022,1.95552901 10.5254036,2.23318991 10.5254036,2.52272727 C10.5254036,2.81226463 10.4103022,3.08992554 10.2054545,3.29454545 L10.1727273,3.32727273 C9.91545498,3.59028367 9.84417466,3.98340542 9.99272727,4.32 L9.99272727,4.36363636 C10.1340372,4.6933476 10.4576493,4.90766023 10.8163636,4.90909091 L10.9090909,4.90909091 C11.5115834,4.90909091 12,5.39750755 12,6 C12,6.60249245 11.5115834,7.09090909 10.9090909,7.09090909 L10.86,7.09090909 C10.5012857,7.09233977 10.1776736,7.3066524 10.0363636,7.63636364 Z" id="Shape"></path>
        </g>
    </g>
</svg>