<svg width="48" height="64" xmlns="http://www.w3.org/2000/svg"><g fill="#27FF98"><path d="M33.02 52.088H16.98v7.959h16.04v-7.959zm-2 5.959H18.98v-3.959h12.04v3.959z"/><path d="M3.402.004A2.447 2.447 0 0 0 .958 2.448v59.104a2.433 2.433 0 0 0 2.416 2.444h41.195a2.447 2.447 0 0 0 2.444-2.444V33.018h.029V2.52A2.455 2.455 0 0 0 44.597.004H3.402zm41.611 61.548a.445.445 0 0 1-.444.444H3.374a.421.421 0 0 1-.416-.444V33.018h42.055v28.534zm.029-59.032v28.498H2.958V2.448c0-.245.199-.444.444-.444h41.195a.468.468 0 0 1 .445.517V2.52z"/><path d="M5 29.193h38V4.006H5v25.187zM7 6.006h34v21.187H7V6.006zm6.042 29.124h2v2h-2v-2zm4 0h2v2h-2v-2zm-12 0h2v2h-2v-2zm4 0h2v2h-2v-2zm28 0h2v2h-2v-2zm-16 0h2v2h-2v-2zm12 0h2v2h-2v-2zm-8 0h2v2h-2v-2zm4 0h2v2h-2v-2zm12 0h1.938v2h-1.938v-2zm-36 3.938h2v2h-2v-2zm20 0h2v2h-2v-2zm-12 0h2v2h-2v-2zm8 0h2v2h-2v-2zm8 0h2v2h-2v-2zm4 0h2v2h-2v-2zm-16 0h2v2h-2v-2zm-8 0h2v2h-2v-2zm0 3.937h2v2h-2v-2zm12 0h2v2h-2v-2zm4 0h2v2h-2v-2zm-20 0h2v2h-2v-2zm12 0h2v2h-2v-2zm16 0h2v2h-2v-2zm-20 0h2v2h-2v-2zm24 0h2v2h-2v-2zm-8 0h2v2h-2v-2zm-24 3.938h2v2h-2v-2zm32 0h2v2h-2v-2zm4 0h1.938v2h-1.938v-2zm-28 0h2v2h-2v-2zm-4 0h2v2h-2v-2zm24 0h2v2h-2v-2zm-14 2h12v-2h-14v2h2z"/><path d="M39.042 41.068H41v2.937h.042v1h1.937v-1h.02v-4.937h-5.957v2h2zm-26.063-29.48h2.068v5.992h-1.891v2H18.9v-2h-1.853v-5.992h1.932v2.031h2V9.588h-10v4.031h2v-2.031zm10-2h14.063v2H22.979v-2zm0 4.031h14.063v2H22.979v-2zm0 3.961h14.063v2H22.979v-2zm-11.906 4.031h25.969v2H11.073v-2z"/></g></svg>