<?xml version="1.0" encoding="UTF-8"?>
<svg width="48px" height="64px" viewBox="0 0 48 64" version="1.1" xmlns="http://www.w3.org/2000/svg" xmlns:xlink="http://www.w3.org/1999/xlink">
    <!-- Generator: Sketch 50 (54983) - http://www.bohemiancoding.com/sketch -->
    <title>writer</title>
    <desc>Created with Sketch.</desc>
    <defs></defs>
    <g id="writer" stroke="none" stroke-width="1" fill="none" fill-rule="evenodd">
        <g fill="#27FF98" fill-rule="nonzero" id="Shape">
            <path d="M33.02,52.088 L16.98,52.088 L16.98,60.047 L33.02,60.047 L33.02,52.088 Z M31.02,58.047 L18.98,58.047 L18.98,54.088 L31.02,54.088 L31.02,58.047 Z"></path>
            <path d="M3.402,0.004 C2.05290135,0.00565297142 0.959652971,1.09890135 0.958,2.448 L0.958,61.552 C0.951902662,62.8933853 2.03263351,63.9866412 3.374,63.996 L44.569,63.996 C45.9180987,63.994347 47.011347,62.9010987 47.013,61.552 L47.013,33.018 L47.042,33.018 L47.042,2.52 C47.0584059,1.86012089 46.8083916,1.22143555 46.3483695,0.748054902 C45.8883473,0.274674256 45.2570783,0.00648481853 44.597,0.004 L3.402,0.004 Z M45.013,61.552 C45.0124501,61.7969863 44.8139863,61.9954501 44.569,61.996 L3.374,61.996 C3.25911269,61.9948074 3.14970382,61.9467125 3.07114856,61.8628698 C2.9925933,61.7790272 2.95171697,61.6667216 2.958,61.552 L2.958,33.018 L45.013,33.018 L45.013,61.552 Z M45.042,2.52 L45.042,31.018 L2.958,31.018 L2.958,2.448 C2.958,2.203 3.157,2.004 3.402,2.004 L44.597,2.004 C44.7260571,2.00962561 44.8470494,2.06834526 44.931321,2.16625179 C45.0155925,2.26415832 45.0556478,2.39254329 45.042,2.521 L45.042,2.52 Z"></path>
            <path d="M5,29.193 L43,29.193 L43,4.006 L5,4.006 L5,29.193 Z M7,6.006 L41,6.006 L41,27.193 L7,27.193 L7,6.006 Z M13.042,35.13 L15.042,35.13 L15.042,37.13 L13.042,37.13 L13.042,35.13 Z M17.042,35.13 L19.042,35.13 L19.042,37.13 L17.042,37.13 L17.042,35.13 Z M5.042,35.13 L7.042,35.13 L7.042,37.13 L5.042,37.13 L5.042,35.13 Z M9.042,35.13 L11.042,35.13 L11.042,37.13 L9.042,37.13 L9.042,35.13 Z M37.042,35.13 L39.042,35.13 L39.042,37.13 L37.042,37.13 L37.042,35.13 Z M21.042,35.13 L23.042,35.13 L23.042,37.13 L21.042,37.13 L21.042,35.13 Z M33.042,35.13 L35.042,35.13 L35.042,37.13 L33.042,37.13 L33.042,35.13 Z M25.042,35.13 L27.042,35.13 L27.042,37.13 L25.042,37.13 L25.042,35.13 Z M29.042,35.13 L31.042,35.13 L31.042,37.13 L29.042,37.13 L29.042,35.13 Z M41.042,35.13 L42.98,35.13 L42.98,37.13 L41.042,37.13 L41.042,35.13 Z M5.042,39.068 L7.042,39.068 L7.042,41.068 L5.042,41.068 L5.042,39.068 Z M25.042,39.068 L27.042,39.068 L27.042,41.068 L25.042,41.068 L25.042,39.068 Z M13.042,39.068 L15.042,39.068 L15.042,41.068 L13.042,41.068 L13.042,39.068 Z M21.042,39.068 L23.042,39.068 L23.042,41.068 L21.042,41.068 L21.042,39.068 Z M29.042,39.068 L31.042,39.068 L31.042,41.068 L29.042,41.068 L29.042,39.068 Z M33.042,39.068 L35.042,39.068 L35.042,41.068 L33.042,41.068 L33.042,39.068 Z M17.042,39.068 L19.042,39.068 L19.042,41.068 L17.042,41.068 L17.042,39.068 Z M9.042,39.068 L11.042,39.068 L11.042,41.068 L9.042,41.068 L9.042,39.068 Z M9.042,43.005 L11.042,43.005 L11.042,45.005 L9.042,45.005 L9.042,43.005 Z M21.042,43.005 L23.042,43.005 L23.042,45.005 L21.042,45.005 L21.042,43.005 Z M25.042,43.005 L27.042,43.005 L27.042,45.005 L25.042,45.005 L25.042,43.005 Z M5.042,43.005 L7.042,43.005 L7.042,45.005 L5.042,45.005 L5.042,43.005 Z M17.042,43.005 L19.042,43.005 L19.042,45.005 L17.042,45.005 L17.042,43.005 Z M33.042,43.005 L35.042,43.005 L35.042,45.005 L33.042,45.005 L33.042,43.005 Z M13.042,43.005 L15.042,43.005 L15.042,45.005 L13.042,45.005 L13.042,43.005 Z M37.042,43.005 L39.042,43.005 L39.042,45.005 L37.042,45.005 L37.042,43.005 Z M29.042,43.005 L31.042,43.005 L31.042,45.005 L29.042,45.005 L29.042,43.005 Z M5.042,46.943 L7.042,46.943 L7.042,48.943 L5.042,48.943 L5.042,46.943 Z M37.042,46.943 L39.042,46.943 L39.042,48.943 L37.042,48.943 L37.042,46.943 Z M41.042,46.943 L42.98,46.943 L42.98,48.943 L41.042,48.943 L41.042,46.943 Z M13.042,46.943 L15.042,46.943 L15.042,48.943 L13.042,48.943 L13.042,46.943 Z M9.042,46.943 L11.042,46.943 L11.042,48.943 L9.042,48.943 L9.042,46.943 Z M33.042,46.943 L35.042,46.943 L35.042,48.943 L33.042,48.943 L33.042,46.943 Z M19.042,48.943 L31.042,48.943 L31.042,46.943 L17.042,46.943 L17.042,48.943 L18.229,48.943 L19.042,48.943 Z"></path>
            <path d="M39.042,41.068 L41,41.068 L41,44.005 L41.042,44.005 L41.042,45.005 L42.979,45.005 L42.979,44.005 L42.999,44.005 L42.999,39.068 L37.042,39.068 L37.042,41.068 L38.104,41.068 L39.042,41.068 Z M12.979,11.588 L15.047,11.588 L15.047,17.58 L13.156,17.58 L13.156,19.58 L18.9,19.58 L18.9,17.58 L17.047,17.58 L17.047,11.588 L18.979,11.588 L18.979,13.619 L20.979,13.619 L20.979,9.588 L10.979,9.588 L10.979,13.619 L12.979,13.619 L12.979,11.588 Z M22.979,9.588 L37.042,9.588 L37.042,11.588 L22.979,11.588 L22.979,9.588 Z M22.979,13.619 L37.042,13.619 L37.042,15.619 L22.979,15.619 L22.979,13.619 Z M22.979,17.58 L37.042,17.58 L37.042,19.58 L22.979,19.58 L22.979,17.58 Z M11.073,21.611 L37.042,21.611 L37.042,23.611 L11.073,23.611 L11.073,21.611 Z"></path>
        </g>
    </g>
</svg>