<svg style="fill: #27FF98" id="_x35_5be5bc4-e0f6-4626-9db3-e6cbe1956385" xmlns="http://www.w3.org/2000/svg" xmlns:xlink="http://www.w3.org/1999/xlink" viewBox="0 0 64 64"><defs><path id="SVGID_1_" d="M0 0h64v64H0z"/></defs><clipPath id="SVGID_2_"><use xlink:href="#SVGID_1_" overflow="visible"/></clipPath><title>sq3</title><g class="st0"><path d="M41.02 52.088H24.98v7.959h16.04v-7.959zm-2 5.959H26.98v-3.959h12.04v3.959z"/><path d="M11.402.004a2.447 2.447 0 0 0-2.444 2.444v59.104a2.433 2.433 0 0 0 2.416 2.444h41.195a2.447 2.447 0 0 0 2.444-2.444V33.018h.029V2.52A2.455 2.455 0 0 0 52.597.004H11.402zm41.611 61.548a.445.445 0 0 1-.444.444H11.374a.421.421 0 0 1-.416-.444V33.018h42.055v28.534zm.029-59.032v28.498H10.958V2.448c0-.245.199-.444.444-.444h41.195a.468.468 0 0 1 .445.517z"/><path d="M13 29.193h38V4.006H13v25.187zm2-23.187h34v21.187H15V6.006zM21.042 35.13h2v2h-2zM25.042 35.13h2v2h-2zM13.042 35.13h2v2h-2zM17.042 35.13h2v2h-2zM45.042 35.13h2v2h-2zM29.042 35.13h2v2h-2zM41.042 35.13h2v2h-2zM33.042 35.13h2v2h-2zM37.042 35.13h2v2h-2zM49.042 35.13h1.938v2h-1.938zM13.042 39.068h2v2h-2zM33.042 39.068h2v2h-2zM21.042 39.068h2v2h-2zM29.042 39.068h2v2h-2zM37.042 39.068h2v2h-2zM41.042 39.068h2v2h-2zM25.042 39.068h2v2h-2zM17.042 39.068h2v2h-2zM17.042 43.005h2v2h-2zM29.042 43.005h2v2h-2zM33.042 43.005h2v2h-2zM13.042 43.005h2v2h-2zM25.042 43.005h2v2h-2zM41.042 43.005h2v2h-2zM21.042 43.005h2v2h-2zM45.042 43.005h2v2h-2zM37.042 43.005h2v2h-2zM13.042 46.943h2v2h-2zM45.042 46.943h2v2h-2zM49.042 46.943h1.938v2h-1.938zM21.042 46.943h2v2h-2zM17.042 46.943h2v2h-2zM41.042 46.943h2v2h-2zM27.042 48.943h12v-2h-14v2h1.187z"/><path d="M47.042 41.068H49v2.937h.042v1h1.937v-1h.02v-4.937h-5.957v2h1.062zM20.979 11.588h2.068v5.992h-1.891v2H26.9v-2h-1.853v-5.992h1.932v2.031h2V9.588h-10v4.031h2zM30.979 9.588h14.063v2H30.979zM30.979 13.619h14.063v2H30.979zM30.979 17.58h14.063v2H30.979zM19.073 21.611h25.969v2H19.073z"/></g></svg>
