<svg xmlns="http://www.w3.org/2000/svg" xmlns:xlink="http://www.w3.org/1999/xlink" style="width: 0; height: 0; visibility: hidden; position: absolute;" aria-hidden="true"><symbol  id='txt-dir-open'>
    <path d="M16 2H7C5.05.667 4.05 0 4 0H0v12h16V2zM3.5 1l3 2H15v4H1V.998L3.5 1z" fill="currentColor"></path>
  </symbol><symbol  id='txt-dir'>
    <path d="M16 2H7C5.05.667 4.05 0 4 0H0v12h16V2z" fill="currentColor"></path>
  </symbol><symbol  id='txt-file'>
    <path d="M0 0h11v10.348C11 12.355 9.252 14 7.118 14H0V0zm2.444 7h6.112V5.833H2.444V7zm0-3.5h6.112V2.333H2.444V3.5zm0 7h4.89V9.333h-4.89V10.5z" fill="currentColor"></path>
  </symbol><symbol  id='txt-history'>
    <g fill="currentColor" fill-rule="nonzero"><path d="M15.764 19.577a.68.68 0 0 0 .503.228.68.68 0 0 0 .503-.228l2.844-3.122a.836.836 0 0 0 0-1.105.668.668 0 0 0-1.006 0l-1.63 1.79v-6.701c1.178 0 2.133-1.048 2.133-2.341V6.537c0-1.294-.955-2.342-2.133-2.342h-1.422c-1.179 0-2.134 1.048-2.134 2.342v1.56c0 1.294.955 2.342 2.134 2.342v6.7l-1.63-1.789a.668.668 0 0 0-1.007 0 .836.836 0 0 0 0 1.105l2.845 3.122zm-.92-11.48v-1.56c0-.431.319-.78.712-.78h1.422c.393 0 .71.349.71.78v1.56c0 .432-.317.781-.71.781h-1.422c-.393 0-.712-.35-.712-.78zM4.386 8.65a.68.68 0 0 0 .503.229.68.68 0 0 0 .503-.23l1.63-1.789v6.701c-1.178 0-2.133 1.048-2.133 2.341v1.561c0 1.294.955 2.342 2.133 2.342h1.422c1.179 0 2.134-1.048 2.134-2.342v-1.56c0-1.294-.955-2.342-2.134-2.342v-6.7l1.63 1.789a.668.668 0 0 0 1.007 0 .836.836 0 0 0 0-1.105L8.236 4.423a.68.68 0 0 0-.503-.228.68.68 0 0 0-.503.228L4.386 7.545a.82.82 0 0 0-.209.553.82.82 0 0 0 .209.552zm4.77 7.252v1.561c0 .431-.319.78-.712.78H7.022c-.393 0-.71-.349-.71-.78v-1.56c0-.432.317-.781.71-.781h1.422c.393 0 .712.35.712.78z"></path></g>
  </symbol><symbol  id='txt-library'>
    <g transform="translate(4 4)" stroke="currentColor" stroke-width="1.5" fill="none" fill-rule="evenodd" stroke-linecap="round" stroke-linejoin="round"><rect width="16" height="16" rx="1.778"></rect><path d="M5.333 0v16"></path></g>
  </symbol><symbol  id='txt-p2p'>
    <path d="M18.087 7.495c-.114 0-.226-.011-.334-.03L13.9 14.57c.743.546 1.223 1.402 1.223 2.362 0 1.645-1.406 2.983-3.135 2.983-1.728 0-3.135-1.338-3.135-2.983 0-.96.479-1.814 1.22-2.36L6.22 7.465c-.108.019-.218.03-.33.03-1.008 0-1.825-.777-1.825-1.736 0-.958.817-1.735 1.824-1.735 1.008 0 1.824.777 1.824 1.735 0 .459-.188.875-.493 1.185l3.867 7.132c.108-.031.218-.056.331-.076V7.408c-.728-.229-1.254-.88-1.254-1.649 0-.958.817-1.735 1.824-1.735 1.007 0 1.824.777 1.824 1.735 0 .77-.526 1.42-1.254 1.649V14c.112.02.221.045.329.075l3.867-7.133a1.683 1.683 0 0 1-.491-1.183c0-.958.817-1.735 1.824-1.735 1.007 0 1.824.777 1.824 1.735 0 .959-.817 1.736-1.824 1.736zm-6.099 11.336c1.1 0 1.995-.851 1.995-1.898s-.895-1.899-1.995-1.899-1.995.852-1.995 1.899c0 1.047.895 1.898 1.995 1.898z" fill="currentColor" fill-rule="nonzero"></path>
  </symbol><symbol  id='txt-power'>
    <g stroke="currentColor" fill="none" fill-rule="evenodd" stroke-linecap="round" stroke-linejoin="round"><path d="M17.658 6.667a7.681 7.681 0 0 1-.001 11.046c-3.125 3.05-8.19 3.05-11.314 0a7.681 7.681 0 0 1 0-11.046" stroke-width="1.667"></path><path d="M12 4v8.254" stroke-width="1.5"></path></g>
  </symbol><symbol  id='txt-preview'>
    <g transform="translate(4 7)" stroke="currentColor" stroke-width="1.5" fill="none" fill-rule="evenodd" stroke-linecap="round" stroke-linejoin="round"><path d="M0 5.5S2.91 0 8 0s8 5.5 8 5.5S13.09 11 8 11 0 5.5 0 5.5z"></path><ellipse cx="8" cy="5.5" rx="2.182" ry="2.063"></ellipse></g>
  </symbol><symbol  id='txt-settings'>
    <g transform="translate(4 4)" stroke="currentColor" stroke-width="1.5" fill="none" fill-rule="evenodd" stroke-linecap="round" stroke-linejoin="round"><circle cx="8" cy="8" r="2.182"></circle><path d="M13.382 10.182a1.2 1.2 0 0 0 .24 1.323l.043.044a1.455 1.455 0 1 1-2.058 2.058l-.043-.043a1.2 1.2 0 0 0-1.324-.24 1.2 1.2 0 0 0-.727 1.098v.123a1.455 1.455 0 1 1-2.91 0v-.065a1.2 1.2 0 0 0-.785-1.098 1.2 1.2 0 0 0-1.323.24l-.044.043a1.455 1.455 0 1 1-2.058-2.058l.043-.043a1.2 1.2 0 0 0 .24-1.324 1.2 1.2 0 0 0-1.098-.727h-.123a1.455 1.455 0 0 1 0-2.91h.065a1.2 1.2 0 0 0 1.098-.785 1.2 1.2 0 0 0-.24-1.323l-.043-.044a1.455 1.455 0 1 1 2.058-2.058l.043.043a1.2 1.2 0 0 0 1.324.24h.058a1.2 1.2 0 0 0 .727-1.098v-.123a1.455 1.455 0 0 1 2.91 0v.065a1.2 1.2 0 0 0 .727 1.098 1.2 1.2 0 0 0 1.323-.24l.044-.043a1.455 1.455 0 1 1 2.058 2.058l-.043.043a1.2 1.2 0 0 0-.24 1.324v.058a1.2 1.2 0 0 0 1.098.727h.123a1.455 1.455 0 1 1 0 2.91h-.065a1.2 1.2 0 0 0-1.098.727z"></path></g>
  </symbol><symbol  id='txt-share'>
    <g stroke="currentColor" stroke-width="1.5" fill="none" fill-rule="evenodd" stroke-linecap="round"><path d="M6 12v6.4c0 .884.728 1.6 1.625 1.6h9.75c.897 0 1.625-.716 1.625-1.6V12"></path><path stroke-linejoin="round" d="M15.75 7.2L12.5 4 9.25 7.2"></path><path d="M12.5 4v10.4"></path></g>
  </symbol><symbol  id='txt-writer'>
    <g fill="currentColor"><path d="M33.02 52.088H16.98v7.959h16.04v-7.959zm-2 5.959H18.98v-3.959h12.04v3.959z"></path><path d="M3.402.004A2.447 2.447 0 0 0 .958 2.448v59.104a2.433 2.433 0 0 0 2.416 2.444h41.195a2.447 2.447 0 0 0 2.444-2.444V33.018h.029V2.52A2.455 2.455 0 0 0 44.597.004H3.402zm41.611 61.548a.445.445 0 0 1-.444.444H3.374a.421.421 0 0 1-.416-.444V33.018h42.055v28.534zm.029-59.032v28.498H2.958V2.448c0-.245.199-.444.444-.444h41.195a.468.468 0 0 1 .445.517V2.52z"></path><path d="M5 29.193h38V4.006H5v25.187zM7 6.006h34v21.187H7V6.006zm6.042 29.124h2v2h-2v-2zm4 0h2v2h-2v-2zm-12 0h2v2h-2v-2zm4 0h2v2h-2v-2zm28 0h2v2h-2v-2zm-16 0h2v2h-2v-2zm12 0h2v2h-2v-2zm-8 0h2v2h-2v-2zm4 0h2v2h-2v-2zm12 0h1.938v2h-1.938v-2zm-36 3.938h2v2h-2v-2zm20 0h2v2h-2v-2zm-12 0h2v2h-2v-2zm8 0h2v2h-2v-2zm8 0h2v2h-2v-2zm4 0h2v2h-2v-2zm-16 0h2v2h-2v-2zm-8 0h2v2h-2v-2zm0 3.937h2v2h-2v-2zm12 0h2v2h-2v-2zm4 0h2v2h-2v-2zm-20 0h2v2h-2v-2zm12 0h2v2h-2v-2zm16 0h2v2h-2v-2zm-20 0h2v2h-2v-2zm24 0h2v2h-2v-2zm-8 0h2v2h-2v-2zm-24 3.938h2v2h-2v-2zm32 0h2v2h-2v-2zm4 0h1.938v2h-1.938v-2zm-28 0h2v2h-2v-2zm-4 0h2v2h-2v-2zm24 0h2v2h-2v-2zm-14 2h12v-2h-14v2h2z"></path><path d="M39.042 41.068H41v2.937h.042v1h1.937v-1h.02v-4.937h-5.957v2h2zm-26.063-29.48h2.068v5.992h-1.891v2H18.9v-2h-1.853v-5.992h1.932v2.031h2V9.588h-10v4.031h2v-2.031zm10-2h14.063v2H22.979v-2zm0 4.031h14.063v2H22.979v-2zm0 3.961h14.063v2H22.979v-2zm-11.906 4.031h25.969v2H11.073v-2z"></path></g>
  </symbol></svg>
